<?xml version="1.0" encoding="UTF-8" standalone="no"?><!DOCTYPE svg PUBLIC "-//W3C//DTD SVG 1.1//EN" "http://www.w3.org/Graphics/SVG/1.1/DTD/svg11.dtd"><svg width="100%" height="100%" viewBox="0 0 1350 930" version="1.1" xmlns="http://www.w3.org/2000/svg" xmlns:xlink="http://www.w3.org/1999/xlink" xml:space="preserve" xmlns:serif="http://www.serif.com/" style="fill-rule:evenodd;clip-rule:evenodd;stroke-linejoin:round;stroke-miterlimit:2;"><rect id="Free-Tarot-Fun-logo-darkmode" x="0" y="0" width="1350" height="930" style="fill:none;"/><g><g><path d="M468.629,110.97l116.856,436.111c5.902,22.028 -7.19,44.704 -29.218,50.607l-250.606,67.15c-22.028,5.902 -44.704,-7.19 -50.607,-29.218l-116.856,-436.111c-5.902,-22.028 7.19,-44.704 29.218,-50.607l250.606,-67.15c22.028,-5.902 44.704,7.19 50.607,29.218Z" style="fill:#ffd700;"/><path d="M420.318,81.205c21.287,-4.436 42.614,8.501 48.311,29.764l116.856,436.111c5.902,22.028 -7.19,44.704 -29.218,50.607l-147.369,39.487c73.909,-99.149 98.523,-266.01 53.314,-438.908c-10.85,-41.494 -25.036,-80.716 -41.894,-117.062Z" style="fill:#e0822a;"/><path d="M479.194,108.139l116.856,436.111c7.465,27.859 -9.093,56.537 -36.952,64.002l-250.606,67.15c-27.859,7.465 -56.537,-9.093 -64.002,-36.952l-116.856,-436.111c-7.465,-27.859 9.093,-56.537 36.952,-64.002l250.606,-67.15c27.859,-7.465 56.537,9.093 64.002,36.952Zm-21.13,5.662c-4.34,-16.197 -21.014,-25.824 -37.211,-21.484l-250.606,67.15c-16.197,4.34 -25.824,21.014 -21.484,37.211l116.856,436.111c4.34,16.197 21.014,25.824 37.211,21.484l250.606,-67.15c16.197,-4.34 25.824,-21.014 21.484,-37.211l-116.856,-436.111Z" style="fill:#fae9ff;"/><path d="M281.973,620.569l-112.937,-421.486c-3.047,-11.37 3.711,-23.075 15.081,-26.121l231.472,-62.023c11.37,-3.047 23.075,3.711 26.121,15.081l112.937,421.486c3.047,11.37 -3.711,23.075 -15.081,26.121l-231.472,62.023c-11.37,3.047 -23.075,-3.711 -26.121,-15.081Zm9.056,-2.426c1.707,6.372 8.267,10.16 14.639,8.452l231.472,-62.023c6.372,-1.707 10.16,-8.267 8.452,-14.639l-112.937,-421.486c-1.707,-6.372 -8.267,-10.16 -14.639,-8.452l-231.472,62.023c-6.372,1.707 -10.16,8.267 -8.452,14.639l112.937,421.486Z" style="fill:#240143;"/><path d="M413.142,256.72c-21.385,-7.936 -52.479,-10.699 -83.198,-2.468c-30.719,8.231 -56.266,26.171 -70.818,43.737c-11.388,-42.502 13.872,-86.254 56.374,-97.642c42.502,-11.388 86.254,13.872 97.642,56.374Z" style="fill:#240143;"/><path d="M371.781,406.841l-24.537,-37.783l-43.516,11.66l28.352,-35.011l-24.537,-37.783l42.059,16.145l28.352,-35.011l-2.358,44.99l42.059,16.145l-43.516,11.66l-2.358,44.99Z" style="fill:#240143;"/></g><g><path d="M503.957,558.152l0,-451.496c0,-22.805 18.515,-41.32 41.32,-41.32l259.447,0c22.805,0 41.32,18.515 41.32,41.32l-0,451.496c0,22.805 -18.515,41.32 -41.32,41.32l-259.447,0c-22.805,0 -41.32,-18.515 -41.32,-41.32Z" style="fill:#ffd700;"/><path d="M815.381,66.726c17.647,4.705 30.662,20.81 30.662,39.93l-0,451.496c0,22.805 -18.515,41.32 -41.32,41.32l-250.389,-0c152.862,-75.712 261.812,-270.961 261.812,-499.636c0,-11.119 -0.258,-22.159 -0.765,-33.11Z" style="fill:#e0822a;"/><path d="M493.019,558.152l-0,-451.496c0,-28.842 23.416,-52.258 52.258,-52.258l259.447,-0c28.842,0 52.258,23.416 52.258,52.258l0,451.496c0,28.842 -23.416,52.258 -52.258,52.258l-259.447,0c-28.842,0 -52.258,-23.416 -52.258,-52.258Zm21.875,-0c0,16.769 13.614,30.383 30.383,30.383l259.447,-0c16.769,0 30.383,-13.614 30.383,-30.383l0,-451.496c0,-16.769 -13.614,-30.383 -30.383,-30.383l-259.447,0c-16.769,0 -30.383,13.614 -30.383,30.383l0,451.496Z" style="fill:#fae9ff;"/><path d="M533.853,550.581l0,-436.355c0,-11.771 9.557,-21.328 21.328,-21.328l239.637,0c11.771,0 21.328,9.557 21.328,21.328l-0,436.355c0,11.771 -9.557,21.328 -21.328,21.328l-239.637,0c-11.771,0 -21.328,-9.557 -21.328,-21.328Zm9.375,-0c0,6.597 5.356,11.953 11.953,11.953l239.637,-0c6.597,0 11.953,-5.356 11.953,-11.953l0,-436.355c0,-6.597 -5.356,-11.953 -11.953,-11.953l-239.637,0c-6.597,0 -11.953,5.356 -11.953,11.953l-0,436.355Z" style="fill:#240143;"/><path d="M589.5,454.228c19.95,14.157 51.393,25.65 85.5,25.65c34.107,0 65.55,-11.493 85.5,-25.65c0,47.189 -38.311,85.5 -85.5,85.5c-47.189,0 -85.5,-38.311 -85.5,-85.5Z" style="fill:#240143;"/><path d="M674.082,325.192l12.74,39.209l41.227,0l-33.353,24.233l12.74,39.209l-33.353,-24.233l-33.353,24.233l12.74,-39.209l-33.353,-24.233l41.227,-0l12.74,-39.209Z" style="fill:#240143;"/></g><g><path d="M1211.801,199.508l-116.856,436.111c-5.902,22.028 -28.578,35.12 -50.607,29.218l-250.606,-67.15c-22.028,-5.902 -35.12,-28.578 -29.218,-50.607l116.856,-436.111c5.902,-22.028 28.578,-35.12 50.607,-29.218l250.606,67.15c22.028,5.902 35.12,28.578 29.218,50.607Z" style="fill:#ffd700;"/><path d="M1104.036,127.855l78.548,21.047c22.028,5.902 35.12,28.578 29.218,50.607l-116.856,436.111c-5.902,22.028 -28.578,35.12 -50.607,29.218l-143.215,-38.374c78.922,-66.815 144.119,-166.993 178.703,-287.472c20.714,-72.162 28.255,-143.976 24.21,-211.136Z" style="fill:#e0822a;"/><path d="M1222.366,202.339l-116.856,436.111c-7.465,27.859 -36.143,44.416 -64.002,36.952l-250.606,-67.15c-27.859,-7.465 -44.416,-36.143 -36.952,-64.002l116.856,-436.111c7.465,-27.859 36.143,-44.416 64.002,-36.952l250.606,67.15c27.859,7.465 44.416,36.143 36.952,64.002Zm-21.13,-5.662c4.34,-16.197 -5.287,-32.871 -21.484,-37.211l-250.606,-67.15c-16.197,-4.34 -32.871,5.287 -37.211,21.484l-116.856,436.111c-4.34,16.197 5.287,32.871 21.484,37.211l250.606,67.15c16.197,4.34 32.871,-5.287 37.211,-21.484l116.856,-436.111Z" style="fill:#fae9ff;"/><path d="M795.353,547.506l112.937,-421.486c3.047,-11.37 14.751,-18.128 26.121,-15.081l231.472,62.023c11.37,3.047 18.128,14.751 15.081,26.121l-112.937,421.486c-3.047,11.37 -14.751,18.128 -26.121,15.081l-231.472,-62.023c-11.37,-3.047 -18.128,-14.751 -15.081,-26.121Zm9.056,2.426c-1.707,6.372 2.08,12.932 8.452,14.639l231.472,62.023c6.372,1.707 12.932,-2.08 14.639,-8.452l112.937,-421.486c1.707,-6.372 -2.08,-12.932 -8.452,-14.639l-231.472,-62.023c-6.372,-1.707 -12.932,2.08 -14.639,8.452l-112.937,421.486Z" style="fill:#240143;"/><path d="M1090.873,297.989c-14.552,-17.565 -40.099,-35.505 -70.818,-43.737c-30.719,-8.231 -61.813,-5.468 -83.198,2.468c11.388,-42.502 55.14,-67.762 97.642,-56.374c42.502,11.388 67.762,55.14 56.374,97.642Z" style="fill:#240143;"/><path d="M979.992,407.316l-3.19,-44.316c0,0 -42.679,-12.225 -42.684,-12.334l41.161,-16.728c0,0 -1.562,-44.368 -1.46,-44.407l28.629,33.977c0,0 41.713,-15.195 41.782,-15.111l-23.468,37.727c0,0 27.342,34.976 27.283,35.068l-43.133,-10.661c0,0 -24.815,36.812 -24.92,36.784Z" style="fill:#240143;"/></g></g><g><path d="M178.174,770.816c-3.19,-3.451 -6.543,-6.136 -10.059,-8.057c-3.516,-1.921 -6.771,-3.32 -9.766,-4.199c-2.995,-0.879 -5.501,-1.4 -7.52,-1.563c-2.018,-0.163 -3.158,-0.244 -3.418,-0.244c-3.255,0 -5.892,0.407 -7.91,1.221c-2.018,0.814 -3.597,1.855 -4.736,3.125c-1.139,1.27 -1.921,2.702 -2.344,4.297c-0.423,1.595 -0.635,3.206 -0.635,4.834c0,1.562 0.179,3.19 0.537,4.883c0.358,1.693 0.96,3.239 1.807,4.639c0.846,1.4 1.986,2.555 3.418,3.467c1.432,0.911 3.255,1.367 5.469,1.367c0.13,0 0.651,-0.016 1.562,-0.049c0.911,-0.033 2.051,-0.293 3.418,-0.781c1.367,-0.488 2.881,-1.335 4.541,-2.539c1.66,-1.204 3.337,-2.946 5.029,-5.225l0,39.746c-1.367,-2.474 -2.865,-4.427 -4.492,-5.859c-1.628,-1.432 -3.174,-2.49 -4.639,-3.174c-1.465,-0.684 -2.767,-1.107 -3.906,-1.27c-1.139,-0.163 -1.904,-0.244 -2.295,-0.244c-2.148,0 -3.923,0.358 -5.322,1.074c-1.4,0.716 -2.507,1.709 -3.32,2.979c-0.814,1.27 -1.383,2.799 -1.709,4.59c-0.326,1.79 -0.488,3.76 -0.488,5.908c0.195,5.013 0.684,10.189 1.465,15.527c0.326,2.279 0.749,4.688 1.27,7.227c0.521,2.539 1.172,5.16 1.953,7.861c0.781,2.702 1.693,5.404 2.734,8.105c1.042,2.702 2.246,5.355 3.613,7.959c-1.432,-0.065 -2.995,-0.163 -4.688,-0.293c-1.497,-0.13 -3.239,-0.228 -5.225,-0.293c-1.986,-0.065 -4.215,-0.098 -6.689,-0.098c-2.93,0 -6.12,0.081 -9.57,0.244c-3.451,0.163 -6.966,0.439 -10.547,0.83c-3.581,0.391 -7.194,0.928 -10.84,1.611c-3.646,0.684 -7.129,1.546 -10.449,2.588c1.432,-2.93 2.669,-6.641 3.711,-11.133c1.042,-4.492 1.904,-9.277 2.588,-14.355c0.684,-5.078 1.221,-10.254 1.611,-15.527c0.391,-5.273 0.684,-10.173 0.879,-14.697c0.195,-4.525 0.309,-8.464 0.342,-11.816c0.033,-3.353 0.049,-5.648 0.049,-6.885c0,-0.26 -0.016,-1.27 -0.049,-3.027c-0.033,-1.758 -0.081,-4.036 -0.146,-6.836c-0.065,-2.799 -0.163,-6.006 -0.293,-9.619c-0.13,-3.613 -0.309,-7.373 -0.537,-11.279c-0.228,-3.906 -0.521,-7.845 -0.879,-11.816c-0.358,-3.971 -0.781,-7.731 -1.27,-11.279c-0.488,-3.548 -1.042,-6.738 -1.66,-9.57c-0.618,-2.832 -1.351,-5.094 -2.197,-6.787c6.25,1.302 12.614,2.23 19.092,2.783c6.478,0.553 12.874,0.83 19.189,0.83c7.227,0 14.062,-0.244 20.508,-0.732c6.445,-0.488 12.109,-1.058 16.992,-1.709c5.729,-0.716 11.003,-1.562 15.82,-2.539l0,45.801Z" style="fill:#fae9ff;fill-rule:nonzero;"/><path d="M237.061,779.41c-2.018,0 -3.841,0.57 -5.469,1.709c-1.628,1.139 -3.076,2.734 -4.346,4.785c-1.27,2.051 -2.376,4.508 -3.32,7.373c-0.944,2.865 -1.709,6.022 -2.295,9.473c0,5.534 0.13,11.133 0.391,16.797c0.26,5.664 0.684,11.263 1.27,16.797c0.586,5.534 1.351,10.938 2.295,16.211c0.944,5.273 2.1,10.286 3.467,15.039c-1.042,-0.065 -2.246,-0.163 -3.613,-0.293c-1.172,-0.065 -2.588,-0.13 -4.248,-0.195c-1.66,-0.065 -3.564,-0.098 -5.713,-0.098c-4.036,0 -8.708,0.179 -14.014,0.537c-5.306,0.358 -11.182,1.025 -17.627,2.002c0.781,-3.646 1.465,-8.105 2.051,-13.379c0.586,-5.273 1.074,-11.003 1.465,-17.187c0.391,-6.185 0.7,-12.646 0.928,-19.385c0.228,-6.738 0.342,-13.395 0.342,-19.971c0,-4.883 -0.065,-9.668 -0.195,-14.355c-0.13,-4.688 -0.309,-9.115 -0.537,-13.281c-0.228,-4.167 -0.537,-8.008 -0.928,-11.523c-0.391,-3.516 -0.846,-6.543 -1.367,-9.082c5.273,0.911 10.075,1.546 14.404,1.904c4.329,0.358 8.219,0.537 11.67,0.537c2.214,0 4.167,-0.049 5.859,-0.146c1.693,-0.098 3.158,-0.212 4.395,-0.342c1.367,-0.195 2.604,-0.391 3.711,-0.586c-0.781,3.255 -1.367,6.868 -1.758,10.84c3.385,-4.102 7.08,-7.129 11.084,-9.082c4.004,-1.953 7.764,-2.93 11.279,-2.93c5.859,0 10.807,1.058 14.844,3.174c4.036,2.116 7.292,4.883 9.766,8.301c2.474,3.418 4.264,7.308 5.371,11.67c1.107,4.362 1.66,8.789 1.66,13.281c0,4.362 -0.618,8.626 -1.855,12.793c-1.237,4.167 -3.027,7.894 -5.371,11.182c-2.344,3.288 -5.241,5.941 -8.691,7.959c-3.451,2.018 -7.357,3.027 -11.719,3.027c-3.841,0 -7.113,-0.651 -9.814,-1.953c-2.702,-1.302 -4.932,-2.995 -6.689,-5.078c-1.758,-2.083 -3.044,-4.378 -3.857,-6.885c-0.814,-2.507 -1.221,-4.997 -1.221,-7.471c0,-2.604 0.374,-5.143 1.123,-7.617c0.749,-2.474 1.839,-4.72 3.271,-6.738c0.456,1.432 1.025,2.523 1.709,3.271c0.684,0.749 1.383,1.286 2.1,1.611c0.781,0.391 1.628,0.618 2.539,0.684c2.409,0 4.215,-0.553 5.42,-1.66c1.204,-1.107 1.807,-2.409 1.807,-3.906c0,-0.716 -0.13,-1.53 -0.391,-2.441c-0.26,-0.911 -0.732,-1.758 -1.416,-2.539c-0.684,-0.781 -1.644,-1.449 -2.881,-2.002c-1.237,-0.553 -2.865,-0.83 -4.883,-0.83Z" style="fill:#fae9ff;fill-rule:nonzero;"/><path d="M367.822,777.164c0,4.883 -0.7,9.635 -2.1,14.258c-1.4,4.622 -3.857,8.724 -7.373,12.305c-3.516,3.581 -8.252,6.445 -14.209,8.594c-5.957,2.148 -13.525,3.223 -22.705,3.223c0.26,3.19 0.928,5.859 2.002,8.008c1.074,2.148 2.36,3.874 3.857,5.176c1.497,1.302 3.092,2.279 4.785,2.93c1.693,0.651 3.255,1.107 4.688,1.367c1.432,0.26 2.637,0.391 3.613,0.391l1.465,0c4.036,-0.456 7.65,-1.497 10.84,-3.125c1.367,-0.651 2.702,-1.481 4.004,-2.49c1.302,-1.009 2.49,-2.214 3.564,-3.613c1.074,-1.4 1.953,-2.995 2.637,-4.785c0.684,-1.79 1.09,-3.857 1.221,-6.201c1.693,4.232 2.881,8.187 3.564,11.865c0.684,3.678 1.025,7.113 1.025,10.303c0,5.859 -1.058,11.247 -3.174,16.162c-2.116,4.915 -5.029,9.163 -8.74,12.744c-3.711,3.581 -8.122,6.364 -13.232,8.35c-5.111,1.986 -10.661,2.979 -16.65,2.979c-5.859,0 -11.507,-1.009 -16.943,-3.027c-5.436,-2.018 -10.254,-5.225 -14.453,-9.619c-4.199,-4.395 -7.552,-10.107 -10.059,-17.139c-2.507,-7.031 -3.76,-15.56 -3.76,-25.586c0,-10.872 1.562,-20.508 4.688,-28.906c3.125,-8.398 7.324,-15.446 12.598,-21.143c5.273,-5.697 11.377,-10.026 18.311,-12.988c6.934,-2.962 14.209,-4.443 21.826,-4.443c3.776,0 7.406,0.423 10.889,1.27c3.483,0.846 6.543,2.246 9.18,4.199c2.637,1.953 4.736,4.476 6.299,7.568c1.562,3.092 2.344,6.885 2.344,11.377Zm-46.777,22.266c1.823,-0.065 3.939,-0.439 6.348,-1.123c2.409,-0.684 4.688,-1.644 6.836,-2.881c2.148,-1.237 3.955,-2.767 5.42,-4.59c1.465,-1.823 2.197,-3.906 2.197,-6.25c0,-1.497 -0.521,-2.702 -1.562,-3.613c-1.042,-0.911 -2.376,-1.367 -4.004,-1.367c-2.279,0 -4.313,0.651 -6.104,1.953c-1.79,1.302 -3.32,2.93 -4.59,4.883c-1.27,1.953 -2.295,4.102 -3.076,6.445c-0.781,2.344 -1.27,4.525 -1.465,6.543Z" style="fill:#fae9ff;fill-rule:nonzero;"/><path d="M461.377,777.164c0,4.883 -0.7,9.635 -2.1,14.258c-1.4,4.622 -3.857,8.724 -7.373,12.305c-3.516,3.581 -8.252,6.445 -14.209,8.594c-5.957,2.148 -13.525,3.223 -22.705,3.223c0.26,3.19 0.928,5.859 2.002,8.008c1.074,2.148 2.36,3.874 3.857,5.176c1.497,1.302 3.092,2.279 4.785,2.93c1.693,0.651 3.255,1.107 4.688,1.367c1.432,0.26 2.637,0.391 3.613,0.391l1.465,0c4.036,-0.456 7.65,-1.497 10.84,-3.125c1.367,-0.651 2.702,-1.481 4.004,-2.49c1.302,-1.009 2.49,-2.214 3.564,-3.613c1.074,-1.4 1.953,-2.995 2.637,-4.785c0.684,-1.79 1.09,-3.857 1.221,-6.201c1.693,4.232 2.881,8.187 3.564,11.865c0.684,3.678 1.025,7.113 1.025,10.303c0,5.859 -1.058,11.247 -3.174,16.162c-2.116,4.915 -5.029,9.163 -8.74,12.744c-3.711,3.581 -8.122,6.364 -13.232,8.35c-5.111,1.986 -10.661,2.979 -16.65,2.979c-5.859,0 -11.507,-1.009 -16.943,-3.027c-5.436,-2.018 -10.254,-5.225 -14.453,-9.619c-4.199,-4.395 -7.552,-10.107 -10.059,-17.139c-2.507,-7.031 -3.76,-15.56 -3.76,-25.586c0,-10.872 1.562,-20.508 4.688,-28.906c3.125,-8.398 7.324,-15.446 12.598,-21.143c5.273,-5.697 11.377,-10.026 18.311,-12.988c6.934,-2.962 14.209,-4.443 21.826,-4.443c3.776,0 7.406,0.423 10.889,1.27c3.483,0.846 6.543,2.246 9.18,4.199c2.637,1.953 4.736,4.476 6.299,7.568c1.562,3.092 2.344,6.885 2.344,11.377Zm-46.777,22.266c1.823,-0.065 3.939,-0.439 6.348,-1.123c2.409,-0.684 4.688,-1.644 6.836,-2.881c2.148,-1.237 3.955,-2.767 5.42,-4.59c1.465,-1.823 2.197,-3.906 2.197,-6.25c0,-1.497 -0.521,-2.702 -1.562,-3.613c-1.042,-0.911 -2.376,-1.367 -4.004,-1.367c-2.279,0 -4.313,0.651 -6.104,1.953c-1.79,1.302 -3.32,2.93 -4.59,4.883c-1.27,1.953 -2.295,4.102 -3.076,6.445c-0.781,2.344 -1.27,4.525 -1.465,6.543Z" style="fill:#fae9ff;fill-rule:nonzero;"/><path d="M547.412,867.594c-1.497,-0.13 -3.223,-0.26 -5.176,-0.391c-1.693,-0.13 -3.678,-0.228 -5.957,-0.293c-2.279,-0.065 -4.85,-0.098 -7.715,-0.098c-4.818,0 -10.238,0.179 -16.26,0.537c-6.022,0.358 -12.386,1.025 -19.092,2.002c2.279,-9.635 4.004,-18.913 5.176,-27.832c1.172,-8.919 2.051,-16.862 2.637,-23.828c0.651,-8.138 1.042,-15.788 1.172,-22.949c0,-3.06 -0.065,-6.413 -0.195,-10.059c-0.13,-3.125 -0.293,-6.755 -0.488,-10.889c-0.195,-4.134 -0.456,-8.61 -0.781,-13.428c-3.06,2.93 -6.104,6.071 -9.131,9.424c-3.027,3.353 -5.941,6.836 -8.74,10.449c-2.799,3.613 -5.42,7.275 -7.861,10.986c-2.441,3.711 -4.574,7.357 -6.396,10.938l2.344,-74.609c6.12,0.716 12.581,1.27 19.385,1.66c6.803,0.391 13.753,0.586 20.85,0.586c10.156,0 20.215,-0.358 30.176,-1.074c9.961,-0.716 19.108,-1.758 27.441,-3.125l3.613,75.391c-4.688,-8.919 -9.88,-17.301 -15.576,-25.146c-5.697,-7.845 -11.768,-14.404 -18.213,-19.678c-0.521,4.427 -0.895,9.066 -1.123,13.916c-0.228,4.85 -0.342,9.814 -0.342,14.893c0,6.576 0.212,13.33 0.635,20.264c0.423,6.934 1.042,13.916 1.855,20.947c0.814,7.031 1.872,14.03 3.174,20.996c1.302,6.966 2.832,13.77 4.59,20.41Z" style="fill:#fae9ff;fill-rule:nonzero;"/><path d="M679.932,869.352c-1.237,-0.13 -2.669,-0.26 -4.297,-0.391c-1.367,-0.13 -3.011,-0.228 -4.932,-0.293c-1.921,-0.065 -4.02,-0.098 -6.299,-0.098c-3.255,0 -6.82,0.13 -10.693,0.391c-3.874,0.26 -7.861,0.749 -11.963,1.465l0.391,-27.441c-2.474,9.701 -6.104,17.188 -10.889,22.461c-4.785,5.273 -10.4,7.91 -16.846,7.91c-2.018,0 -4.297,-0.26 -6.836,-0.781c-2.539,-0.521 -5.127,-1.514 -7.764,-2.979c-2.637,-1.465 -5.208,-3.499 -7.715,-6.104c-2.507,-2.604 -4.736,-5.973 -6.689,-10.107c-1.953,-4.134 -3.516,-9.147 -4.688,-15.039c-1.172,-5.892 -1.758,-12.874 -1.758,-20.947c0,-10.938 1.107,-20.296 3.32,-28.076c2.214,-7.78 5.046,-14.144 8.496,-19.092c3.451,-4.948 7.259,-8.561 11.426,-10.84c4.167,-2.279 8.236,-3.418 12.207,-3.418c3.385,0 6.462,0.472 9.229,1.416c2.767,0.944 5.225,2.148 7.373,3.613c2.148,1.465 4.004,3.109 5.566,4.932c1.562,1.823 2.832,3.646 3.809,5.469c-0.195,-2.214 -0.488,-4.574 -0.879,-7.08c-0.391,-2.507 -0.846,-5.094 -1.367,-7.764c4.232,0.846 8.529,1.4 12.891,1.66c4.362,0.26 8.398,0.391 12.109,0.391c4.427,0 8.008,-0.098 10.742,-0.293c1.563,-0.065 2.995,-0.163 4.297,-0.293c-0.716,3.255 -1.367,6.901 -1.953,10.938c-0.586,4.036 -1.09,8.35 -1.514,12.939c-0.423,4.59 -0.749,9.408 -0.977,14.453c-0.228,5.046 -0.342,10.205 -0.342,15.479c0,9.831 0.488,19.694 1.465,29.59c0.977,9.896 2.669,19.206 5.078,27.93Zm-40.137,-55.957l0,-15.82c0,-1.758 -0.098,-3.548 -0.293,-5.371c-0.195,-1.823 -0.635,-3.483 -1.318,-4.98c-0.684,-1.497 -1.676,-2.718 -2.979,-3.662c-1.302,-0.944 -3.06,-1.416 -5.273,-1.416c-2.344,0 -4.281,0.814 -5.811,2.441c-1.53,1.628 -2.767,3.857 -3.711,6.689c-0.944,2.832 -1.595,6.185 -1.953,10.059c-0.358,3.874 -0.537,8.089 -0.537,12.646c0,2.604 0.179,5.241 0.537,7.91c0.358,2.669 0.96,5.094 1.807,7.275c0.846,2.181 1.986,3.955 3.418,5.322c1.432,1.367 3.19,2.051 5.273,2.051c2.344,0 4.232,-0.814 5.664,-2.441c1.432,-1.628 2.523,-3.646 3.271,-6.055c0.749,-2.409 1.253,-4.932 1.514,-7.568c0.26,-2.637 0.391,-4.997 0.391,-7.08Z" style="fill:#fae9ff;fill-rule:nonzero;"/><path d="M741.162,779.41c-2.018,0 -3.841,0.57 -5.469,1.709c-1.628,1.139 -3.076,2.734 -4.346,4.785c-1.27,2.051 -2.376,4.508 -3.32,7.373c-0.944,2.865 -1.709,6.022 -2.295,9.473c0,5.534 0.13,11.133 0.391,16.797c0.26,5.664 0.684,11.263 1.27,16.797c0.586,5.534 1.351,10.938 2.295,16.211c0.944,5.273 2.1,10.286 3.467,15.039c-1.042,-0.065 -2.246,-0.163 -3.613,-0.293c-1.172,-0.065 -2.588,-0.13 -4.248,-0.195c-1.66,-0.065 -3.564,-0.098 -5.713,-0.098c-4.036,0 -8.708,0.179 -14.014,0.537c-5.306,0.358 -11.182,1.025 -17.627,2.002c0.781,-3.646 1.465,-8.105 2.051,-13.379c0.586,-5.273 1.074,-11.003 1.465,-17.187c0.391,-6.185 0.7,-12.646 0.928,-19.385c0.228,-6.738 0.342,-13.395 0.342,-19.971c0,-4.883 -0.065,-9.668 -0.195,-14.355c-0.13,-4.688 -0.309,-9.115 -0.537,-13.281c-0.228,-4.167 -0.537,-8.008 -0.928,-11.523c-0.391,-3.516 -0.846,-6.543 -1.367,-9.082c5.273,0.911 10.075,1.546 14.404,1.904c4.329,0.358 8.219,0.537 11.67,0.537c2.214,0 4.167,-0.049 5.859,-0.146c1.693,-0.098 3.158,-0.212 4.395,-0.342c1.367,-0.195 2.604,-0.391 3.711,-0.586c-0.781,3.255 -1.367,6.868 -1.758,10.84c3.385,-4.102 7.08,-7.129 11.084,-9.082c4.004,-1.953 7.764,-2.93 11.279,-2.93c5.859,0 10.807,1.058 14.844,3.174c4.036,2.116 7.292,4.883 9.766,8.301c2.474,3.418 4.264,7.308 5.371,11.67c1.107,4.362 1.66,8.789 1.66,13.281c0,4.362 -0.618,8.626 -1.855,12.793c-1.237,4.167 -3.027,7.894 -5.371,11.182c-2.344,3.288 -5.241,5.941 -8.691,7.959c-3.451,2.018 -7.357,3.027 -11.719,3.027c-3.841,0 -7.113,-0.651 -9.814,-1.953c-2.702,-1.302 -4.932,-2.995 -6.689,-5.078c-1.758,-2.083 -3.044,-4.378 -3.857,-6.885c-0.814,-2.507 -1.221,-4.997 -1.221,-7.471c0,-2.604 0.374,-5.143 1.123,-7.617c0.749,-2.474 1.839,-4.72 3.271,-6.738c0.456,1.432 1.025,2.523 1.709,3.271c0.684,0.749 1.383,1.286 2.1,1.611c0.781,0.391 1.628,0.618 2.539,0.684c2.409,0 4.215,-0.553 5.42,-1.66c1.204,-1.107 1.807,-2.409 1.807,-3.906c0,-0.716 -0.13,-1.53 -0.391,-2.441c-0.26,-0.911 -0.732,-1.758 -1.416,-2.539c-0.684,-0.781 -1.644,-1.449 -2.881,-2.002c-1.237,-0.553 -2.865,-0.83 -4.883,-0.83Z" style="fill:#fae9ff;fill-rule:nonzero;"/><path d="M879.736,810.953c0,3.776 -0.293,7.926 -0.879,12.451c-0.586,4.525 -1.562,9.082 -2.93,13.672c-1.367,4.59 -3.223,9.049 -5.566,13.379c-2.344,4.329 -5.257,8.154 -8.74,11.475c-3.483,3.32 -7.633,5.99 -12.451,8.008c-4.818,2.018 -10.417,3.027 -16.797,3.027c-6.38,0 -11.963,-0.944 -16.748,-2.832c-4.785,-1.888 -8.887,-4.411 -12.305,-7.568c-3.418,-3.158 -6.234,-6.803 -8.447,-10.938c-2.214,-4.134 -3.971,-8.48 -5.273,-13.037c-1.302,-4.557 -2.197,-9.163 -2.686,-13.818c-0.488,-4.655 -0.732,-9.066 -0.732,-13.232c0,-7.357 0.977,-14.567 2.93,-21.631c1.953,-7.064 4.932,-13.363 8.936,-18.896c4.004,-5.534 9.017,-9.993 15.039,-13.379c6.022,-3.385 13.102,-5.078 21.24,-5.078c5.469,0 10.384,0.83 14.746,2.49c4.362,1.66 8.236,3.923 11.621,6.787c3.385,2.865 6.266,6.217 8.643,10.059c2.376,3.841 4.346,7.91 5.908,12.207c1.562,4.297 2.702,8.757 3.418,13.379c0.716,4.622 1.074,9.115 1.074,13.477Zm-33.984,3.223c0,-1.497 -0.049,-3.369 -0.146,-5.615c-0.098,-2.246 -0.309,-4.606 -0.635,-7.08c-0.326,-2.474 -0.765,-4.948 -1.318,-7.422c-0.553,-2.474 -1.286,-4.688 -2.197,-6.641c-0.911,-1.953 -2.035,-3.548 -3.369,-4.785c-1.335,-1.237 -2.913,-1.855 -4.736,-1.855c-1.758,0 -3.288,0.586 -4.59,1.758c-1.302,1.172 -2.425,2.702 -3.369,4.59c-0.944,1.888 -1.725,4.02 -2.344,6.396c-0.618,2.376 -1.107,4.753 -1.465,7.129c-0.358,2.376 -0.618,4.655 -0.781,6.836c-0.163,2.181 -0.244,4.02 -0.244,5.518c0,2.148 0.163,4.753 0.488,7.812c0.326,3.06 0.944,5.99 1.855,8.789c0.911,2.799 2.165,5.192 3.76,7.178c1.595,1.986 3.695,2.979 6.299,2.979c2.474,0 4.541,-0.911 6.201,-2.734c1.66,-1.823 2.979,-4.053 3.955,-6.689c0.977,-2.637 1.66,-5.42 2.051,-8.35c0.391,-2.93 0.586,-5.534 0.586,-7.812Z" style="fill:#fae9ff;fill-rule:nonzero;"/><path d="M964.404,749.43c-0.521,2.93 -0.895,5.794 -1.123,8.594c-0.228,2.799 -0.342,5.664 -0.342,8.594c0,2.799 0.114,5.615 0.342,8.447c0.228,2.832 0.602,5.68 1.123,8.545c-3.125,-1.628 -6.657,-2.832 -10.596,-3.613c-3.939,-0.781 -7.959,-1.4 -12.061,-1.855l0,8.398c0,7.357 0.13,14.795 0.391,22.314c0.26,7.52 0.684,14.811 1.27,21.875c0.586,7.064 1.351,13.753 2.295,20.068c0.944,6.315 2.1,11.914 3.467,16.797c-1.107,-0.065 -2.409,-0.163 -3.906,-0.293c-1.302,-0.065 -2.832,-0.13 -4.59,-0.195c-1.758,-0.065 -3.776,-0.098 -6.055,-0.098c-4.232,0 -9.115,0.179 -14.648,0.537c-5.534,0.358 -11.523,1.025 -17.969,2.002c2.214,-12.695 3.792,-25.895 4.736,-39.6c0.944,-13.704 1.416,-27.1 1.416,-40.186l0,-11.621c-4.427,0.326 -8.805,0.83 -13.135,1.514c-4.329,0.684 -8.415,1.514 -12.256,2.49c0.26,-0.716 0.488,-1.66 0.684,-2.832c0.195,-1.172 0.342,-2.376 0.439,-3.613c0.098,-1.237 0.163,-2.441 0.195,-3.613c0.033,-1.172 0.049,-2.148 0.049,-2.93c0,-3.32 -0.13,-6.608 -0.391,-9.863c-0.26,-3.255 -0.586,-6.543 -0.977,-9.863c3.125,1.302 6.836,2.36 11.133,3.174c4.297,0.814 8.659,1.416 13.086,1.807c-0.391,-5.664 -0.846,-10.905 -1.367,-15.723c-0.521,-4.818 -1.139,-9.18 -1.855,-13.086c5.273,0.911 10.156,1.53 14.648,1.855c4.492,0.326 8.561,0.488 12.207,0.488c2.344,0 4.443,-0.049 6.299,-0.146c1.855,-0.098 3.434,-0.212 4.736,-0.342c1.562,-0.13 2.93,-0.293 4.102,-0.488c-0.716,3.125 -1.318,7.015 -1.807,11.67c-0.488,4.655 -0.96,9.847 -1.416,15.576c4.297,-0.456 8.35,-1.074 12.158,-1.855c3.809,-0.781 7.048,-1.758 9.717,-2.93Z" style="fill:#fae9ff;fill-rule:nonzero;"/><path d="M1062.744,770.816c-3.19,-3.451 -6.543,-6.136 -10.059,-8.057c-3.516,-1.921 -6.771,-3.32 -9.766,-4.199c-2.995,-0.879 -5.501,-1.4 -7.52,-1.563c-2.018,-0.163 -3.158,-0.244 -3.418,-0.244c-3.255,0 -5.892,0.407 -7.91,1.221c-2.018,0.814 -3.597,1.855 -4.736,3.125c-1.139,1.27 -1.921,2.702 -2.344,4.297c-0.423,1.595 -0.635,3.206 -0.635,4.834c0,1.562 0.179,3.19 0.537,4.883c0.358,1.693 0.96,3.239 1.807,4.639c0.846,1.4 1.986,2.555 3.418,3.467c1.432,0.911 3.255,1.367 5.469,1.367c0.13,0 0.651,-0.016 1.562,-0.049c0.911,-0.033 2.051,-0.293 3.418,-0.781c1.367,-0.488 2.881,-1.335 4.541,-2.539c1.66,-1.204 3.337,-2.946 5.029,-5.225l0,39.746c-1.367,-2.474 -2.865,-4.427 -4.492,-5.859c-1.628,-1.432 -3.174,-2.49 -4.639,-3.174c-1.465,-0.684 -2.767,-1.107 -3.906,-1.27c-1.139,-0.163 -1.904,-0.244 -2.295,-0.244c-2.148,0 -3.923,0.358 -5.322,1.074c-1.4,0.716 -2.507,1.709 -3.32,2.979c-0.814,1.27 -1.383,2.799 -1.709,4.59c-0.326,1.79 -0.488,3.76 -0.488,5.908c0.195,5.013 0.684,10.189 1.465,15.527c0.326,2.279 0.749,4.688 1.27,7.227c0.521,2.539 1.172,5.16 1.953,7.861c0.781,2.702 1.693,5.404 2.734,8.105c1.042,2.702 2.246,5.355 3.613,7.959c-1.432,-0.065 -2.995,-0.163 -4.688,-0.293c-1.497,-0.13 -3.239,-0.228 -5.225,-0.293c-1.986,-0.065 -4.215,-0.098 -6.689,-0.098c-2.93,0 -6.12,0.081 -9.57,0.244c-3.451,0.163 -6.966,0.439 -10.547,0.83c-3.581,0.391 -7.194,0.928 -10.84,1.611c-3.646,0.684 -7.129,1.546 -10.449,2.588c1.432,-2.93 2.669,-6.641 3.711,-11.133c1.042,-4.492 1.904,-9.277 2.588,-14.355c0.684,-5.078 1.221,-10.254 1.611,-15.527c0.391,-5.273 0.684,-10.173 0.879,-14.697c0.195,-4.525 0.309,-8.464 0.342,-11.816c0.033,-3.353 0.049,-5.648 0.049,-6.885c0,-0.26 -0.016,-1.27 -0.049,-3.027c-0.033,-1.758 -0.081,-4.036 -0.146,-6.836c-0.065,-2.799 -0.163,-6.006 -0.293,-9.619c-0.13,-3.613 -0.309,-7.373 -0.537,-11.279c-0.228,-3.906 -0.521,-7.845 -0.879,-11.816c-0.358,-3.971 -0.781,-7.731 -1.27,-11.279c-0.488,-3.548 -1.042,-6.738 -1.66,-9.57c-0.618,-2.832 -1.351,-5.094 -2.197,-6.787c6.25,1.302 12.614,2.23 19.092,2.783c6.478,0.553 12.874,0.83 19.189,0.83c7.227,0 14.062,-0.244 20.508,-0.732c6.445,-0.488 12.109,-1.058 16.992,-1.709c5.729,-0.716 11.003,-1.562 15.82,-2.539l0,45.801Z" style="fill:#fae9ff;fill-rule:nonzero;"/><path d="M1156.982,755.387c-0.586,2.93 -1.123,6.348 -1.611,10.254c-0.488,3.906 -0.911,8.122 -1.27,12.646c-0.358,4.525 -0.635,9.245 -0.83,14.16c-0.195,4.915 -0.293,9.814 -0.293,14.697c0,1.628 0.033,3.239 0.098,4.834c0.065,1.595 0.098,3.141 0.098,4.639c0,3.19 -0.179,6.803 -0.537,10.84c-0.358,4.036 -1.074,8.154 -2.148,12.354c-1.074,4.199 -2.555,8.317 -4.443,12.354c-1.888,4.036 -4.378,7.617 -7.471,10.742c-3.092,3.125 -6.852,5.648 -11.279,7.568c-4.427,1.921 -9.668,2.881 -15.723,2.881c-5.208,0 -9.814,-0.684 -13.818,-2.051c-4.004,-1.367 -7.487,-3.239 -10.449,-5.615c-2.962,-2.376 -5.452,-5.192 -7.471,-8.447c-2.018,-3.255 -3.646,-6.755 -4.883,-10.498c-1.237,-3.743 -2.132,-7.666 -2.686,-11.768c-0.553,-4.102 -0.83,-8.171 -0.83,-12.207c0,-0.977 0.016,-1.579 0.049,-1.807c0.033,-0.228 0.049,-0.374 0.049,-0.439c0,-0.065 0.033,-0.179 0.098,-0.342c0.065,-0.163 0.098,-0.667 0.098,-1.514c0,-0.846 0.016,-2.181 0.049,-4.004c0.033,-1.823 0.049,-4.395 0.049,-7.715c0,-3.906 -0.065,-8.317 -0.195,-13.232c-0.13,-4.915 -0.407,-9.733 -0.83,-14.453c-0.423,-4.72 -1.025,-9.001 -1.807,-12.842c-0.781,-3.841 -1.79,-6.641 -3.027,-8.398c5.273,0.911 10.238,1.53 14.893,1.855c4.655,0.326 8.903,0.488 12.744,0.488c2.539,0 4.834,-0.049 6.885,-0.146c2.051,-0.098 3.825,-0.212 5.322,-0.342c1.693,-0.13 3.223,-0.293 4.59,-0.488c-1.302,6.38 -2.555,13.623 -3.76,21.729c-1.204,8.105 -1.807,17.399 -1.807,27.881c0,2.409 0.114,4.915 0.342,7.52c0.228,2.604 0.635,4.997 1.221,7.178c0.586,2.181 1.383,3.971 2.393,5.371c1.009,1.4 2.295,2.1 3.857,2.1c1.953,0 3.483,-0.651 4.59,-1.953c1.107,-1.302 1.937,-3.011 2.49,-5.127c0.553,-2.116 0.879,-4.476 0.977,-7.08c0.098,-2.604 0.146,-5.208 0.146,-7.812c-0.065,-8.464 -0.326,-16.374 -0.781,-23.73c-0.195,-3.125 -0.439,-6.283 -0.732,-9.473c-0.293,-3.19 -0.635,-6.201 -1.025,-9.033c-0.391,-2.832 -0.846,-5.371 -1.367,-7.617c-0.521,-2.246 -1.107,-4.02 -1.758,-5.322c5.273,0.911 10.156,1.53 14.648,1.855c4.492,0.326 8.496,0.488 12.012,0.488c2.344,0 4.443,-0.049 6.299,-0.146c1.855,-0.098 3.434,-0.212 4.736,-0.342c1.562,-0.13 2.93,-0.293 4.102,-0.488Z" style="fill:#fae9ff;fill-rule:nonzero;"/><path d="M1265.576,869.937c-2.018,-0.326 -4.232,-0.537 -6.641,-0.635c-2.409,-0.098 -4.915,-0.146 -7.52,-0.146c-3.125,0 -6.299,0.081 -9.521,0.244c-3.223,0.163 -6.364,0.374 -9.424,0.635c-3.06,0.26 -5.957,0.553 -8.691,0.879c-2.734,0.326 -5.111,0.618 -7.129,0.879c2.799,-9.44 4.964,-19.531 6.494,-30.273c1.53,-10.742 2.295,-22.656 2.295,-35.742c0,-0.977 -0.016,-2.279 -0.049,-3.906c-0.033,-1.628 -0.114,-3.385 -0.244,-5.273c-0.13,-1.888 -0.342,-3.792 -0.635,-5.713c-0.293,-1.921 -0.716,-3.662 -1.27,-5.225c-0.553,-1.563 -1.253,-2.832 -2.1,-3.809c-0.846,-0.977 -1.888,-1.465 -3.125,-1.465c-1.823,0 -3.597,0.651 -5.322,1.953c-1.725,1.302 -3.255,3.027 -4.59,5.176c-1.335,2.148 -2.409,4.622 -3.223,7.422c-0.814,2.799 -1.221,5.697 -1.221,8.691c0,5.404 0.13,10.889 0.391,16.455c0.26,5.566 0.684,11.084 1.27,16.553c0.586,5.469 1.335,10.824 2.246,16.064c0.911,5.241 2.051,10.205 3.418,14.893c-1.107,-0.065 -2.409,-0.163 -3.906,-0.293c-1.302,-0.065 -2.832,-0.13 -4.59,-0.195c-1.758,-0.065 -3.776,-0.098 -6.055,-0.098c-4.232,0 -9.115,0.179 -14.648,0.537c-5.534,0.358 -11.523,1.025 -17.969,2.002c0.781,-3.646 1.465,-8.105 2.051,-13.379c0.586,-5.273 1.074,-11.003 1.465,-17.187c0.391,-6.185 0.7,-12.646 0.928,-19.385c0.228,-6.738 0.342,-13.395 0.342,-19.971c0,-4.883 -0.065,-9.668 -0.195,-14.355c-0.13,-4.688 -0.309,-9.115 -0.537,-13.281c-0.228,-4.167 -0.537,-8.008 -0.928,-11.523c-0.391,-3.516 -0.846,-6.543 -1.367,-9.082c5.273,0.911 10.156,1.546 14.648,1.904c4.492,0.358 8.561,0.537 12.207,0.537c2.344,0 4.443,-0.049 6.299,-0.146c1.855,-0.098 3.434,-0.212 4.736,-0.342c1.562,-0.195 2.93,-0.391 4.102,-0.586c-0.391,2.018 -0.765,4.167 -1.123,6.445c-0.358,2.279 -0.7,4.753 -1.025,7.422c2.148,-2.734 4.427,-5.127 6.836,-7.178c2.409,-2.051 4.834,-3.76 7.275,-5.127c2.441,-1.367 4.867,-2.393 7.275,-3.076c2.409,-0.684 4.688,-1.025 6.836,-1.025c4.688,0 8.74,0.96 12.158,2.881c3.418,1.921 6.25,4.932 8.496,9.033c2.246,4.102 3.923,9.342 5.029,15.723c1.107,6.38 1.66,14.03 1.66,22.949c0,6.12 0.016,12.337 0.049,18.652c0.033,6.315 0.179,12.5 0.439,18.555c0.26,6.055 0.716,11.8 1.367,17.236c0.651,5.436 1.562,10.335 2.734,14.697Z" style="fill:#fae9ff;fill-rule:nonzero;"/></g></svg>